<svg id="treci_sloj" data-name="treci sloj" xmlns="http://www.w3.org/2000/svg" viewBox="0 0 1920 540"><defs><style>.cls-1{fill:#124ea2;}.cls-2{fill:#54a4da;}.cls-3{fill:#4375ba;}</style></defs><polygon class="cls-1" points="1051.55 512.59 1059.77 479.61 1074.19 491.14 1084.92 506.15 1051.55 512.59"/><polygon class="cls-2" points="1431.36 305.72 1403.94 236.66 1444.25 238.76 1482.45 251.75 1431.36 305.72"/><polygon class="cls-1" points="531.76 409.41 535.5 344.48 566.71 361.02 592.23 385.44 531.76 409.41"/><polygon class="cls-3" points="1144.52 445.78 1173.79 369.06 1205.04 400.89 1226.44 440.01 1144.52 445.78"/><polygon class="cls-1" points="1298.11 517.05 1242.72 512.52 1257.5 486.2 1278.88 464.9 1298.11 517.05"/><polygon class="cls-2" points="457.7 327.43 416.73 314.76 432.26 297.4 451.92 284.93 457.7 327.43"/><polygon class="cls-3" points="1104.4 170.94 985.97 151.85 1022.21 97.7 1071.81 55.48 1104.4 170.94"/><polygon class="cls-2" points="722.4 523.84 715.44 446.48 755.21 460.56 789.64 484.93 722.4 523.84"/><polygon class="cls-3" points="1008.86 447.35 960.13 421.53 983.91 403.32 1011.74 392.27 1008.86 447.35"/></svg>