<svg xmlns="http://www.w3.org/2000/svg" xmlns:xlink="http://www.w3.org/1999/xlink" viewBox="0 0 237.59 316.88"><defs><style>.cls-1{fill:url(#linear-gradient);}.cls-2{fill:url(#linear-gradient-2);}.cls-3{fill:#e6e7e8;}.cls-4{fill:#be1e2d;}.cls-5{fill:url(#linear-gradient-3);}.cls-6{fill:url(#linear-gradient-4);}.cls-7{fill:url(#linear-gradient-5);}.cls-8{fill:url(#linear-gradient-6);}.cls-9{fill:url(#linear-gradient-7);}</style><linearGradient id="linear-gradient" x1="65.38" y1="150.57" x2="65.38" y2="149.26" gradientUnits="userSpaceOnUse"><stop offset="0.23" stop-color="#bcbec0"/><stop offset="0.43" stop-color="#c5c6c8"/><stop offset="0.76" stop-color="#dcddde"/><stop offset="1" stop-color="#f1f2f2"/></linearGradient><linearGradient id="linear-gradient-2" x1="165.93" y1="79.65" x2="165.93" y2="79.33" xlink:href="#linear-gradient"/><linearGradient id="linear-gradient-3" x1="99.85" y1="93.78" x2="99.85" y2="0.03" gradientUnits="userSpaceOnUse"><stop offset="0.23" stop-color="#bcbec0"/><stop offset="0.37" stop-color="#c5c6c8"/><stop offset="0.59" stop-color="#dcddde"/><stop offset="0.75" stop-color="#f1f2f2"/></linearGradient><linearGradient id="linear-gradient-4" x1="86.59" y1="207" x2="86.59" y2="90.4" gradientUnits="userSpaceOnUse"><stop offset="0" stop-color="#939598"/><stop offset="0.1" stop-color="#999b9d"/><stop offset="0.23" stop-color="#a8aaad"/><stop offset="0.37" stop-color="#c3c4c6"/><stop offset="0.52" stop-color="#e7e8e8"/><stop offset="0.56" stop-color="#f1f2f2"/><stop offset="0.65" stop-color="#edeeee"/><stop offset="0.74" stop-color="#e1e3e3"/><stop offset="0.82" stop-color="#cecfd0"/><stop offset="0.9" stop-color="#b3b5b7"/><stop offset="0.98" stop-color="#939598"/></linearGradient><linearGradient id="linear-gradient-5" x1="168.4" y1="158.47" x2="168.4" y2="79.11" gradientUnits="userSpaceOnUse"><stop offset="0" stop-color="#939598"/><stop offset="0.15" stop-color="#989a9d"/><stop offset="0.34" stop-color="#a7a9ac"/><stop offset="0.54" stop-color="#c1c2c4"/><stop offset="0.76" stop-color="#e3e4e5"/><stop offset="0.83" stop-color="#f1f2f2"/></linearGradient><linearGradient id="linear-gradient-6" x1="54.48" y1="260.43" x2="98.04" y2="260.43" gradientUnits="userSpaceOnUse"><stop offset="0" stop-color="#808285"/><stop offset="0.15" stop-color="#898b8e"/><stop offset="0.41" stop-color="#a2a4a6"/><stop offset="0.73" stop-color="#cacbcc"/><stop offset="1" stop-color="#f1f2f2"/></linearGradient><linearGradient id="linear-gradient-7" x1="99.72" y1="231.07" x2="156.21" y2="231.07" gradientUnits="userSpaceOnUse"><stop offset="0" stop-color="#939598"/><stop offset="0.18" stop-color="#9c9ea1"/><stop offset="0.47" stop-color="#b5b6b8"/><stop offset="0.84" stop-color="#dddedf"/><stop offset="1" stop-color="#f1f2f2"/></linearGradient></defs><g id="Layer_2" data-name="Layer 2"><g id="Layer_1-2" data-name="Layer 1"><path class="cls-1" d="M65.43,149.77c-.86-.21-1.64-.4-2.37-.51a.18.18,0,0,1-.11,0c.76.11,1.59.3,2.48.52a21.23,21.23,0,0,1,2.38.75v-.06A19.31,19.31,0,0,0,65.43,149.77Z"/><path class="cls-2" d="M165.51,79.33c.28.09.55.2.83.32A7.07,7.07,0,0,0,165.51,79.33Z"/><path class="cls-3" d="M237.52,39.12l-27.91,25.3S204.53,70.3,200,65.8L188.19,54l-.36-.38c-.11-.11-.22-.2-.33-.32l-2.21-2.2-.07-.08,0,0s0,0-.06-.06l-.07,0-.13-.13c-.11-.11-.25-.22-.38-.37s-.5-.58-.78-.94l-.13-.16c0-.08-.1-.15-.13-.23a6.81,6.81,0,0,1-.71-1.34.34.34,0,0,1,0-.1c-.08-.2-.13-.39-.19-.58a3,3,0,0,1-.07-.32,1.09,1.09,0,0,1,0-.24,1.17,1.17,0,0,1-.06-.35.42.42,0,0,1,0-.19,3.94,3.94,0,0,1,0-1,4.56,4.56,0,0,1,.24-1.33,1.52,1.52,0,0,1,.09-.28.07.07,0,0,1,0,0,2.08,2.08,0,0,1,.15-.39.36.36,0,0,0,.08-.15,2.08,2.08,0,0,1,.13-.3,1.4,1.4,0,0,1,.15-.24v0l.16-.26.23-.37a3,3,0,0,1,.45-.61,1.49,1.49,0,0,1,.15-.2c.15-.19.27-.36.44-.55a3.25,3.25,0,0,1,.27-.26,2,2,0,0,1,.24-.26h0a5.28,5.28,0,0,1,.58-.58,5.67,5.67,0,0,1,.54-.55l.5-.5a5.64,5.64,0,0,1,.49-.49c.22-.22.45-.43.64-.65a8.14,8.14,0,0,0,.59-.58c.14-.15.25-.26.36-.36l.32-.31.15-.17a1.53,1.53,0,0,1,.15-.13l2.07-2.08,24.3-20.13h0c-.07,0-.15,0-.2,0-.92-.13-1.81-.24-2.71-.35a80.36,80.36,0,0,0-9-.53c-.82,0-1.64,0-2.43.06-1,0-1.94.09-2.87.19-.71,0-1.41.13-2.1.22a45.14,45.14,0,0,0-4.65.88c-.54.13-1.07.26-1.59.43-.32.08-.64.19-1,.28-.47.15-.94.3-1.39.47a11,11,0,0,0-1,.39c-.15.06-.32.11-.49.19s-.51.2-.77.33c-.46.19-.93.4-1.38.64s-.95.47-1.42.73a12.38,12.38,0,0,0-1.18.67c-.39.23-.78.45-1.16.69s-.93.62-1.38,1a43.17,43.17,0,0,0-5.83,5c-.62.63-1.26,1.31-1.85,2-.92,1-1.8,2.07-2.66,3.18-.3.35-.58.73-.86,1.1-.86,1.12-1.7,2.28-2.54,3.46a23.52,23.52,0,0,0-1.74,2.86c0,.09-.11.18-.17.3l-.16.3a2.68,2.68,0,0,0-.12.24,26,26,0,0,0-1.92,5.63c-.13.63-.23,1.25-.32,1.88,0,.25-.06.51-.09.75q-.09.67-.12,1.35c0,.24,0,.46,0,.69s0,.63,0,.95c0,.58,0,1.14,0,1.72a3.39,3.39,0,0,0,0,.45.39.39,0,0,0,0,.15,1.14,1.14,0,0,0,0,.26.07.07,0,0,0,0,.06,6.8,6.8,0,0,0,.07.8,37.25,37.25,0,0,0,1.95,8.15c.13.41.28.82.43,1.22.28.71.58,1.4.86,2s.58,1.26.86,1.83v0l-29.45,34,0,0v0h0c-1-.21-2-.41-3-.64-.33-.07-.67-.13-1-.22l-2.59-.56-1.26-.28c-.41-.09-.82-.19-1.21-.3l-1.16-.28c-.75-.19-1.46-.39-2.11-.58l-.71-.22a1,1,0,0,0-.23-.08,8.63,8.63,0,0,1-.86-.3c-.26-.09-.5-.18-.73-.28a4.33,4.33,0,0,1-.61-.3,2.46,2.46,0,0,1-.86-.56v0a4.9,4.9,0,0,1-.75-1s0,0,0,0a9.39,9.39,0,0,1-1.25-3.77l-.06,0c-.22.09-.47.16-.69.26s-.67.26-1,.37c-.19.08-.35.13-.54.19a4.29,4.29,0,0,0,.5-.19c.34-.11.68-.24,1-.37s.53-.19.79-.3c0,0,0,0,0,0l.32-.13s.06,0,.1,0v0l.08,0,1.1-.46c.47-.21,1-.43,1.44-.66l.1,0c.48-.25,1-.49,1.45-.75s.94-.51,1.41-.77a.26.26,0,0,1,.09,0c.43-.25.84-.51,1.25-.77l0,0c.37-.22.75-.47,1.1-.71a43.16,43.16,0,0,0,4-3c.56-.47,1.12-1,1.65-1.44.35-.3.69-.64,1-1,.55-.53,1.09-1.09,1.61-1.65.1-.11.21-.22.3-.33.39-.42.77-.85,1.12-1.28.83-.93,1.57-1.9,2.3-2.89.3-.41.58-.83.88-1.24.56-.84,1.1-1.7,1.61-2.56.26-.43.5-.88.75-1.31.71-1.34,1.38-2.71,2-4.11.22-.53.41-1.09.61-1.64.05-.12.09-.23.13-.35.28-.74.54-1.48.78-2.24.29-.94.56-1.88.8-2.83a45.82,45.82,0,0,0,1.38-11.26A46.88,46.88,0,0,0,118.9,4l-1.84-.77c-.61-.24-1.25-.46-1.88-.69s-1.28-.43-1.91-.62l-2-.54c-.66-.17-1.31-.32-2-.45A45.91,45.91,0,0,0,99.94,0a48.74,48.74,0,0,0-9.5,1c-.72.15-1.45.32-2.18.51s-1.5.41-2.23.63-1.44.47-2.15.73c0,0,0,0,0,0h0c-.69.28-1.4.54-2.08.82l-.67.3c-.47.21-.91.41-1.36.64L79,4.93c-.63.32-1.27.64-1.88,1A.23.23,0,0,0,77,6c-.6.32-1.18.66-1.75,1-.88.52-1.72,1.08-2.57,1.66-.65.47-1.29,1-1.9,1.48s-1.31,1.07-1.95,1.63h0s0,0-.07.05L68,12.6c-.15.15-.3.28-.45.41l-.43.43c-.54.52-1.07,1.07-1.59,1.63a46.44,46.44,0,0,0-10.3,17.7c-.2.63-.39,1.29-.56,1.94a41.33,41.33,0,0,0-1.07,5A48.37,48.37,0,0,0,53,46.86a46.77,46.77,0,0,0,1.37,11.31c.13.53.28,1,.41,1.53s.3,1,.47,1.54.33,1,.5,1.49A46.91,46.91,0,0,0,77.62,88.08a36.82,36.82,0,0,0,4.1,2,45.88,45.88,0,0,0,4.52,1.65c.09,0,.19.05.28.09l.11,0a.12.12,0,0,0,.08,0h0s0,0,0,0h0a0,0,0,0,0,0,0,.07.07,0,0,0,0,0h0v0h0a7.65,7.65,0,0,1,.09,4.1s0,0,0,0a3.22,3.22,0,0,1-.35.75l-.17.24a3.45,3.45,0,0,1-.26.28v0a2.34,2.34,0,0,1-.3.25,3.79,3.79,0,0,1-.6.35l-.58.19-1.12.26-.66.15c-.67.17-1.44.34-2.24.5l-.84.19c-1.14.26-2.37.54-3.66.86h0c-.26.08-.54.13-.82.21-4.51,1.14-9.48,2.69-12.92,4.82-.24.15-.49.3-.71.45a1.51,1.51,0,0,0-.26.18,10.4,10.4,0,0,0-1.44,1.2,6.18,6.18,0,0,0-.66.71,5.46,5.46,0,0,0-.54.75c-1.91,3.08-6.15,10.88-10.17,19l0,0c-.26.52-.5,1-.76,1.55s-.51,1-.75,1.55-.51,1-.75,1.55-.65,1.36-1,2c-.94,2-1.83,4-2.62,5.81-.28.64-.54,1.25-.78,1.85s-.42,1-.6,1.46-.36.92-.53,1.36-.26.7-.37,1-.22.58-.3.84a6.43,6.43,0,0,0-.24.79c-.08.26-.15.5-.23.75s-.07.22-.09.33,0,.23-.07.34c-.43,1.77-.81,3.49-1.13,5.14-.13.69-.24,1.35-.33,2s-.19,1.2-.24,1.78a1.26,1.26,0,0,0,0,.28,12,12,0,0,0-.11,1.3,18.88,18.88,0,0,0-.1,2.08c0,.45,0,.9.06,1.33a11.06,11.06,0,0,0,.41,2.52,6.07,6.07,0,0,0,1.48,2.73c3.06,3.05,10.39.45,13.87.63a1,1,0,0,1,.33.06,1.94,1.94,0,0,1,.36.15.58.58,0,0,1,.18.11,4,4,0,0,1,.55.39c.11.1.2.21.3.3a6.54,6.54,0,0,1,.59.68,4.47,4.47,0,0,1,.32.41,4.67,4.67,0,0,1,.3.43,11.24,11.24,0,0,1,.64,1c.52.81,1,1.72,1.55,2.69.22.43.45.86.69,1.31a1.22,1.22,0,0,1,.07.17c.27.5.53,1,.77,1.51l.75,1.5c.2.39.39.78.58,1.18s.39.78.6,1.17.31.66.48,1,.43.82.64,1.19a14.19,14.19,0,0,0,1.61,2.53l.48.6q.14.19.3.39l.28.39-.6-.78c-.18-.23-.33-.43-.48-.6a14.19,14.19,0,0,1-1.61-2.53L51.51,197l-.28-.08c-9.29-2.33-23.13-2.87-38,9S.07,242.78.07,242.78L28,217.47s5.09-5.87,9.59-1.36L52.41,231s6.39,4.88,0,11.29L46,248.63l-24.3,20.13c1.09.15,2.13.3,3.18.41s2,.21,3,.29,1.78.11,2.63.14c1,.06,2.06.08,3,.08s1.61,0,2.4-.06l1,0c.67,0,1.32-.1,2-.15s1.16-.12,1.74-.19c.35,0,.69-.09,1-.15l.4-.06c.56-.09,1.1-.18,1.64-.3,0,0,0,0,.06,0,.76-.14,1.51-.31,2.24-.5s1.46-.39,2.15-.62a34.07,34.07,0,0,0,5.27-2.11l.77-.39a33.43,33.43,0,0,0,3.23-1.91c.56-.37,1.1-.75,1.63-1.14s1.06-.8,1.57-1.23c.24-.19.46-.39.71-.6.71-.6,1.4-1.22,2.07-1.89s1.07-1.06,1.59-1.61c1.09,11.57,2.75,29.93,1.35,34.74-.4,1.36-.66,2.24-.81,2.78h0v0l0,0-.09.26c0-.08,0-.17.07-.26-.28.18-.84.54-1.56,1a1.51,1.51,0,0,0-.38.26c-.65.47-1.4,1-2.2,1.61s-1.61,1.27-2.42,2l-.13.12-1.25,1.15c-.15.15-.28.3-.43.43-.35.38-.71.75-1,1.13a1.83,1.83,0,0,0-.13.16c-1,1.28-1.64,2.49-1.49,3.5C55,309,55.6,314,62,316a20.1,20.1,0,0,0,5.32.8c1.07,0,2.14.06,3.18.06.81,0,1.61,0,2.41,0s1.59,0,2.36-.09c.54,0,1.06-.06,1.59-.1.84,0,1.64-.13,2.43-.2.26,0,.52-.06.78-.08.58-.07,1.14-.13,1.7-.22.23,0,.43-.06.66-.09l1.48-.23c1-.17,1.92-.37,2.8-.58a5.17,5.17,0,0,0,.54-.11,4.91,4.91,0,0,0,.58-.17,11.78,11.78,0,0,0,1.14-.32h0a17.13,17.13,0,0,0,2.71-1l.11-.06.75-.41a11.5,11.5,0,0,0,2.28-1.68,4.34,4.34,0,0,0,1.37-2.28,11.36,11.36,0,0,0,.18-1.59c0-.28,0-.56.08-.86.2-2.39-2.6-4.81-3.07-9.39,0,0,.51-12.2,1.14-20.31.3-3.78,1-8.34,1.55-13.24a115.67,115.67,0,0,0,1.09-17.59c-.36-10.86-.28-28.45,0-32.73a12,12,0,0,0,.06-1.21c.09-2.55,0-5.5.5-7.43a4.53,4.53,0,0,1,.15-.44c0-.13.1-.27.15-.4l0,0s0,0,0-.05a0,0,0,0,0,0,0,1.75,1.75,0,0,1,1.65-1.07h.05c3.2.23,5,5.43,7.65,13.15,0,0,11.49,23.92,12.18,29.66s-2,9.22-1.79,21.53,1,11.13-.17,14.4-7.48,6.2-7.66,11.59,9.31,17.14,17.59,20.52a41.94,41.94,0,0,0,7,2.08c.5.11,1,.2,1.49.28,1,.17,2,.32,3,.43,1.33.15,2.62.24,3.87.3.67,0,1.34.05,2,.05l1.08,0h.92c.28,0,.56,0,.84,0,.9-.08,1.72-.19,2.47-.3a15.37,15.37,0,0,0,2.31-.56,7.85,7.85,0,0,0,1.56-.73c3.14-1.93,2.15-5.18,2.15-7.5,0-2.48-3.82-10.82-11.11-12.18-1.77-9.13,8.41-34.92,8.41-39.58s.83-4.37-1.08-12-7.94-29.12-10.52-37.87a36.65,36.65,0,0,1-1.37-15.51s-.3-26.12-2.75-45.22l3.74-4.47,0,0c5.74,5.91,14.6,14.4,19.12,16.16l1,.35a18,18,0,0,0,11.24.52,10.33,10.33,0,0,0,2.37-1.06c3.74-2.28,3.65-4.82,4.73-10.49s-.84-13.16.6-16.73,9.25-13.63,10.8-17.36,6-7.67,2.83-25c-.06-.33-.13-.67-.21-1h0c8.52.6,19.12-1.31,30.34-10.26,5.29-4.2,8.48-10.06,10.37-15.83A60.63,60.63,0,0,0,237.52,39.12ZM67.21,145.54c.21,1.59.41,3.27.6,5a19.31,19.31,0,0,0-2.38-.74c-.86-.21-1.64-.4-2.37-.51l-.11,0C63.1,149.24,64.09,148.94,67.21,145.54Zm99.63-65.65.17.1a5.28,5.28,0,0,0-.67-.34C166.51,79.72,166.67,79.8,166.84,79.89Zm.3.17a2.12,2.12,0,0,0,.21.11l.18.13C167.4,80.21,167.27,80.14,167.14,80.06Zm1.55,1a.72.72,0,0,1,.19.13,5.79,5.79,0,0,1,.52.41l.94.82h0a1,1,0,0,1,.09.1.36.36,0,0,1,.11.13A24.09,24.09,0,0,0,168.69,81.11Zm3.26,3c-.23-.24-.47-.49-.72-.71l-.5-.51c.13.13.26.27.41.4a2.93,2.93,0,0,1,.32.3c.34.33.67.71,1,1.06C172.28,84.45,172.11,84.29,172,84.1Zm.56.6,1,1s.05,0,.05.06c1.29,1.49,2.53,3,3.63,4.39.24.26.45.53.65.79l.42.5a21.15,21.15,0,0,0,2.35,2.58l1.55-1.85c1.55,3.44,1,3.87-1.44,2a.81.81,0,0,1-.15-.13h0c-.09-.07-.18-.17-.28-.26a15.72,15.72,0,0,1-1.38-1.51c-.39-.45-.82-1-1.25-1.52l-2.41-3C174.34,86.77,173.42,85.71,172.51,84.7Z"/><path class="cls-4" d="M74.56,220.91c2.73,7.44,4.13,17.68-2.39,26.94a86.88,86.88,0,0,1-7,8.76C56,266.41,44.11,272,21.7,268.76L46,248.63l6.41-6.39c6.39-6.41,0-11.29,0-11.29L37.57,216.11c-4.51-4.51-9.59,1.36-9.59,1.36L.07,242.78S-1.71,217.88,13.21,206s28.73-11.36,38-9l.28.08,11.57-13.37a14.19,14.19,0,0,0,1.61,2.53c.15.17.3.37.49.6,3.12,4,10.28,15.66,18.84,19.45a9,9,0,0,0,2.24.66Z"/><path class="cls-4" d="M224.38,75.91c-11.22,9-21.82,10.86-30.34,10.26-2-8.89-8-13-12.73-14.33h0c-4-1.07-7.1-.12-6.37,1.75s1.57,4.4,2.52,7.07a82.35,82.35,0,0,0,3.87,9.7c.34.65.62,1.27.84,1.78,0,0,0,0,0,0l0,0-1.55,1.85c-2.8-2.39-9.57-13.12-15.07-14.73a2.26,2.26,0,0,0-.43-.11,3,3,0,0,0-.43-.08h-.31a7.55,7.55,0,0,0-1.16,0,10.14,10.14,0,0,0-1,.18l-.16,0c-5.68,1.34-12.88,8-13,13.75a86.43,86.43,0,0,0,.78,12.93v0c.6,4.15,1.57,8.1,3.14,10.66a21.13,21.13,0,0,0,3.59,4.28v0l.86.78-.46.54-9.63,11.54-5.76,6.88h0l0,0-3.74,4.47-32.65,39.07c-3.37-6-8.6-12.28-9.37-14-1.1-2.45-.76-5.72,2.84-5.59s19.63,4.77,23-3.22-.78-7.38-4.44-7.23-10.1.35-14.21-.37a39.72,39.72,0,0,0-14-.17l18.56-21.48L135.61,99.8l29.47-34.08c-.29-.58-.57-1.19-.87-1.85s-.58-1.34-.86-2-.45-1.22-.66-1.84-.35-1.1-.52-1.66a3.22,3.22,0,0,1-.13-.47c-.17-.59-.34-1.21-.47-1.85s-.26-1.23-.37-1.87S161,53,161,52.45s-.11-1.16-.15-1.72,0-1.14,0-1.72c0-.32,0-.63,0-.95s0-.45,0-.69q0-.67.12-1.35c0-.24.05-.5.09-.75a25.19,25.19,0,0,1,2.24-7.51c.15-.28.28-.56.45-.84a23.52,23.52,0,0,1,1.74-2.86c.84-1.18,1.68-2.34,2.54-3.46.28-.37.56-.75.86-1.1.86-1.11,1.74-2.15,2.66-3.18.59-.67,1.23-1.35,1.85-2a43.17,43.17,0,0,1,5.83-5c.45-.34.92-.64,1.38-1s.77-.46,1.16-.69A12.38,12.38,0,0,1,182.9,17c.47-.26.93-.51,1.42-.73s.92-.45,1.38-.64c.26-.13.51-.22.77-.33s.34-.13.49-.19a11,11,0,0,1,1-.39c.45-.17.92-.32,1.39-.47.31-.09.63-.2,1-.28.52-.17,1-.3,1.59-.43a45.14,45.14,0,0,1,4.65-.88c.69-.09,1.39-.17,2.1-.22.93-.1,1.88-.17,2.87-.19.79,0,1.61-.06,2.43-.06a80.36,80.36,0,0,1,9,.53c.9.11,1.79.22,2.71.35l.24,0-24.3,20.13-2.07,2.08c-.1.09-.19.2-.3.3l-.32.31a3.06,3.06,0,0,1-.36.36l-1.23,1.23-.49.49-1,1.05-.58.58a11,11,0,0,0-1.94,2.49l0,.05a8,8,0,0,0-.49,1.09.69.69,0,0,1,0,.1,6.19,6.19,0,0,0-.26,3.08v0a6.71,6.71,0,0,0,.21.83l0,.09c.1.27.2.53.32.78s.15.3.24.45.27.41.38.6a10.28,10.28,0,0,0,.67.84,3,3,0,0,1,.24.26c.13.15.27.26.38.37l.13.13a.27.27,0,0,1,.13.1h0l0,0,.07.08,2.21,2.2c.22.21.45.43.69.7L200,65.8c4.51,4.5,9.59-1.38,9.59-1.38l27.91-25.3S239.29,64,224.38,75.91Z"/><path class="cls-5" d="M146.69,46.9a46.87,46.87,0,0,1-12.6,32c-.52.56-1.06,1.12-1.6,1.64s-1.18,1.12-1.8,1.67a48.35,48.35,0,0,1-7.36,5.27c-1,.56-2,1.08-3,1.57l-1.53.71-1.1.47-.08,0a.25.25,0,0,0-.11,0l-.32.13v0q-.39.17-.78.3c-.34.13-.68.26-1,.37a9.22,9.22,0,0,1-1,.34l-1.09.34a46.62,46.62,0,0,1-26.65.07,0,0,0,0,0,0,0,0,0,0,0,0,0,0s-.06,0-.07,0l-.4-.11a47.2,47.2,0,0,1-4.54-1.65,42.82,42.82,0,0,1-4.09-2c-.92-.5-1.82-1-2.69-1.57s-1.72-1.14-2.57-1.74-1.66-1.27-2.46-1.9-1.54-1.37-2.28-2.06h0a48,48,0,0,1-4.68-5.18A46.9,46.9,0,0,1,67,13.49c.58-.58,1.17-1.12,1.77-1.66h0q1.91-1.68,3.94-3.16a48.14,48.14,0,0,1,8.92-4.95l2.11-.85h0c.71-.26,1.42-.5,2.15-.72s1.48-.45,2.22-.64,1.48-.36,2.23-.52a47.83,47.83,0,0,1,9.5-1,45.36,45.36,0,0,1,9.38,1c.67.13,1.33.28,2,.44s1.31.36,2,.55,1.27.39,1.91.61,1.27.45,1.89.7,1.23.5,1.83.76l1.53.71A46.89,46.89,0,0,1,146.69,46.9Z"/><path class="cls-6" d="M131.64,98.94l-2.59-.56c-.85-.21-1.69-.39-2.47-.58s-1.41-.35-2.06-.53l-.12,0c-.65-.18-1.25-.35-1.8-.52a1,1,0,0,0-.23-.08l-.86-.3a10.3,10.3,0,0,1-1.34-.58,3,3,0,0,1-.86-.58,4.9,4.9,0,0,1-.75-1s0,0,0,0a9.39,9.39,0,0,1-1.25-3.77v0c-.26.11-.53.2-.79.3s-.67.26-1,.37a4.29,4.29,0,0,1-.5.19c-.17,0-.32.11-.51.15l-1.08.33a46.43,46.43,0,0,1-13.46,2,45.82,45.82,0,0,1-13.16-1.91h0s0,0,0,0h0a.07.07,0,0,0,0,0h0s0,0,0,0a7.65,7.65,0,0,1,.09,4.1s0,0,0,0a3.22,3.22,0,0,1-.35.75l-.17.24a3.45,3.45,0,0,1-.26.28,2.34,2.34,0,0,1-.3.25,3.79,3.79,0,0,1-.6.35,4.92,4.92,0,0,1-.58.19c-1.82.47-5,1.1-8.54,2h0c-.26.08-.54.13-.82.21-4.51,1.14-9.48,2.69-12.92,4.82-.24.15-.49.3-.71.45a1.51,1.51,0,0,0-.26.18,10.4,10.4,0,0,0-1.44,1.2,6.18,6.18,0,0,0-.66.71,5.46,5.46,0,0,0-.54.75c-1.91,3.08-6.15,10.88-10.17,19l0,0c-.26.52-.5,1-.76,1.55s-.51,1-.75,1.55-.51,1-.75,1.55-.65,1.36-1,2c-1.55,3.29-3,6.43-4,9.12-.19.47-.36.92-.53,1.36s-.26.7-.37,1-.22.58-.3.84a6.43,6.43,0,0,0-.24.79c-.08.26-.15.5-.23.75s-.07.22-.09.33a1,1,0,0,0-.07.28c-.43,1.8-.83,3.54-1.13,5.2-.13.69-.24,1.35-.33,2s-.19,1.2-.24,1.78a1.26,1.26,0,0,0,0,.28,12,12,0,0,0-.11,1.3,18.88,18.88,0,0,0-.1,2.08c0,.45,0,.9.06,1.33a11.06,11.06,0,0,0,.41,2.52,6.25,6.25,0,0,0,1.48,2.67c3.06,3.05,10.39.45,13.87.64a3.71,3.71,0,0,1,2.31,1.68,4.47,4.47,0,0,1,.32.41,4.67,4.67,0,0,1,.3.43,11.43,11.43,0,0,1,.64,1c.52.8,1,1.72,1.55,2.69.22.43.45.86.69,1.31a1.11,1.11,0,0,1,.07.16c.27.51.53,1,.77,1.52s.51,1,.75,1.49l.58,1.18c.2.39.39.79.6,1.18s.31.65.48.95.43.82.64,1.2a14.43,14.43,0,0,0,1.61,2.52c.14.17.29.38.48.6l1.18,1.59c.43.6.91,1.27,1.42,2l.47.63c.15.21.31.43.46.66q.48.62,1,1.29l0,.07c.36.45.71.94,1.09,1.41h0c.58.73,1.16,1.44,1.75,2.17L73.83,198c.43.47.86.95,1.31,1.42.78.82,1.6,1.63,2.46,2.39.25.25.51.45.77.68s.5.43.77.63.52.41.78.6.49.36.73.52c.43.3.88.6,1.33.86.15.1.31.19.46.27.53.29,1,.56,1.59.8a8.14,8.14,0,0,0,1,.35,5.22,5.22,0,0,0,.8.21,3.89,3.89,0,0,0,.47.09c3.64.62,8-.71,11.79-2.93a0,0,0,0,0,0,0,17.85,17.85,0,0,0,1.66-1.05l0,0,.08-.05h0c4.85-3.31,8.45-7.93,8-11.35a21.33,21.33,0,0,0-2.75-7.14s0,0,0,0l-.06-.09c-1.25-2.21-2.75-4.49-4.19-6.52-.48-.7-1-1.35-1.42-2-1.19-1.68-2.24-3.1-2.93-4.13a8.47,8.47,0,0,1-.56-.89,4,4,0,0,1-.21-.38,5.75,5.75,0,0,1-.52-3.06,2.87,2.87,0,0,1,.35-1.07,3,3,0,0,1,3-1.46c3.52.15,18.71,4.51,22.7-2.56a6.49,6.49,0,0,0,.31-.65,15.15,15.15,0,0,0,1.14-3.7c.66-4.06-2.61-3.65-5.59-3.54-3.64.13-10.09.36-14.2-.37a38.59,38.59,0,0,0-8.92-.67l-1.48.09-.28,0c-1,.09-2.13.22-3.29.39h0l0,0,18.54-21.46,4.11-4.74,0,0L135.59,99.8h0v0ZM65.43,149.77c-.86-.21-1.64-.4-2.37-.51l-.11,0c.15,0,1.14-.3,4.26-3.7.21,1.59.41,3.27.6,5A19.31,19.31,0,0,0,65.43,149.77Z"/><path class="cls-7" d="M191.37,112.16c-1.55,3.73-9.37,13.81-10.81,17.36s.51,11.09-.6,16.73-1,8.21-4.73,10.49a11.51,11.51,0,0,1-2.33,1.06,18,18,0,0,1-11.24-.52,10.25,10.25,0,0,1-1-.35c-4.53-1.76-13.37-10.23-19.11-16.14l0,0,5.76-6.88,9.63-11.54.47-.54-.86-.78v0a20.5,20.5,0,0,1-3.59-4.28c-1.57-2.56-2.54-6.51-3.14-10.66,0,0,0,0,0,0a85.48,85.48,0,0,1-.79-13,9,9,0,0,1,.64-3.07,5.32,5.32,0,0,1,.26-.61A15.38,15.38,0,0,1,151.31,87a19.61,19.61,0,0,1,1.38-1.72c.17-.19.34-.36.53-.55A19.09,19.09,0,0,1,162,79.36a.9.9,0,0,1,.16,0,10.14,10.14,0,0,1,1-.18,6.47,6.47,0,0,1,1.16,0h.31a3,3,0,0,1,.43.08l.43.11c2.06.64,4.29,2.53,6.44,4.77l.56.6c.91,1,1.83,2.07,2.69,3.12l2.41,3c.43.54.86,1.07,1.25,1.52a15.72,15.72,0,0,0,1.38,1.51c.1.09.19.19.28.26h0a.81.81,0,0,0,.15.13c2.47,1.89,3,1.46,1.44-2,0,0,0,0,0,0l0,0,5.7-6.85a41.46,41.46,0,0,0,6.13.88c.08.32.15.66.21,1C197.39,104.49,192.92,108.42,191.37,112.16Z"/><path class="cls-8" d="M97.16,213.47c-.32,4.28-.39,21.87,0,32.73s-2,22.69-2.64,30.82-1.14,20.32-1.14,20.32c.47,4.58,3.28,7,3.07,9.38s.15,4-3.89,6.42-13.81,4-25.23,3.68S55,309.73,54.5,305.7s10.64-11.13,11.2-11.48a2.33,2.33,0,0,0-.1.32l.12-.34h0c.15-.54.41-1.42.8-2.78,1.4-4.81-.26-23.22-1.34-34.79v0c1.24-1.33,2.42-2.73,3.58-4.19.59-.74,1.15-1.49,1.71-2.24s1.15-1.55,1.71-2.34c6.52-9.25,5.12-19.49,2.39-26.93l11.7-14c3.65.61,8-.71,11.78-2.92C97,206,97.4,210.35,97.16,213.47Z"/><path class="cls-4" d="M224.38,75.87C213.16,84.82,202.56,86.73,194,86.13h0a42.63,42.63,0,0,1-6.13-.88l-5.74,6.88L180.58,94h0a3.32,3.32,0,0,1-.28-.26c-.41-.39-.86-.92-1.38-1.52-.38-.44-.81-1-1.25-1.51-.73-.92-1.56-1.92-2.42-3s-1.77-2.12-2.69-3.12a8.09,8.09,0,0,0-.56-.6c-2.45-2.56-5-4.68-7.29-5-3.34-.43-8.05,2.08-11.44,5.59l-.52.54c-.51.57-1,1.15-1.39,1.72a17.25,17.25,0,0,0-1.42,2.43l-.26.62a9.2,9.2,0,0,0-.63,3.07,86.68,86.68,0,0,0,.78,13,0,0,0,0,0,0,0v0c-1.31-1.9-2.58-3.27-3.77-3.72a94.09,94.09,0,0,0-10.41-2.5l29.47-34.08c-.58-1.16-1.17-2.47-1.73-3.9-2.92-7.52-4.7-18.17,2.07-27.76,10.54-14.9,22-25,50.47-20.92l-24.3,20.13-6.41,6.39c-6.39,6.4,0,11.3,0,11.3S195.52,61.25,200,65.76s9.59-1.39,9.59-1.39l27.91-25.29S239.29,64,224.38,75.87Z"/><path class="cls-9" d="M152.41,315.89c-4.91,1.72-16.69,1.17-25-2.19s-17.78-15.14-17.59-20.53,6.47-8.3,7.67-11.59.35-2.09.16-14.39,2.47-15.78,1.8-21.53S107.27,216,107.27,216c-2.64-7.7-4.37-12.9-7.55-13.14,4.84-3.31,8.45-7.92,8-11.35a21.46,21.46,0,0,0-2.77-7.15v0l32.64-39c2.45,19.1,2.75,45.2,2.75,45.2A36.54,36.54,0,0,0,141.74,206c2.6,8.75,8.62,30.23,10.54,37.87s1.09,7.39,1.09,12-10.21,30.45-8.42,39.57c7.29,1.37,11.11,9.7,11.11,12.19S157.33,314.15,152.41,315.89Z"/></g></g></svg>