<svg xmlns="http://www.w3.org/2000/svg" xmlns:xlink="http://www.w3.org/1999/xlink" viewBox="0 0 274.59 365.33"><defs><style>.cls-1{fill:url(#linear-gradient);}.cls-2{fill:url(#linear-gradient-2);}.cls-3{fill:url(#linear-gradient-3);}.cls-4{fill:url(#linear-gradient-4);}.cls-5{fill:#be1e2d;}.cls-6{fill:url(#linear-gradient-5);}.cls-7{fill:url(#linear-gradient-6);}.cls-8{fill:url(#linear-gradient-7);}</style><linearGradient id="linear-gradient" x1="46.74" y1="231.36" x2="46.74" y2="230.05" gradientUnits="userSpaceOnUse"><stop offset="0.23" stop-color="#bcbec0"/><stop offset="0.43" stop-color="#c5c6c8"/><stop offset="0.76" stop-color="#dcddde"/><stop offset="1" stop-color="#f1f2f2"/></linearGradient><linearGradient id="linear-gradient-2" x1="147.29" y1="160.44" x2="147.29" y2="160.12" xlink:href="#linear-gradient"/><linearGradient id="linear-gradient-3" x1="114.9" y1="265.99" x2="180.33" y2="265.99" gradientUnits="userSpaceOnUse"><stop offset="0" stop-color="#808285"/><stop offset="0.2" stop-color="#898b8e"/><stop offset="0.52" stop-color="#a2a4a6"/><stop offset="0.93" stop-color="#cacccd"/><stop offset="1" stop-color="#d1d3d4"/></linearGradient><linearGradient id="linear-gradient-4" x1="62.51" y1="299.91" x2="112.95" y2="299.91" gradientUnits="userSpaceOnUse"><stop offset="0" stop-color="#808285"/><stop offset="0.15" stop-color="#898b8e"/><stop offset="0.41" stop-color="#a2a4a6"/><stop offset="0.73" stop-color="#cacbcc"/><stop offset="1" stop-color="#f1f2f2"/></linearGradient><linearGradient id="linear-gradient-5" x1="99.73" y1="238.12" x2="99.73" y2="103.06" gradientUnits="userSpaceOnUse"><stop offset="0" stop-color="#808285"/><stop offset="0.11" stop-color="#86888a"/><stop offset="0.25" stop-color="#95979a"/><stop offset="0.41" stop-color="#b0b2b3"/><stop offset="0.56" stop-color="#d1d3d4"/><stop offset="0.66" stop-color="#cdcfd0"/><stop offset="0.75" stop-color="#c1c3c5"/><stop offset="0.84" stop-color="#aeb0b2"/><stop offset="0.93" stop-color="#939597"/><stop offset="0.98" stop-color="#808285"/></linearGradient><linearGradient id="linear-gradient-6" x1="194.46" y1="182.33" x2="194.46" y2="89.56" gradientUnits="userSpaceOnUse"><stop offset="0" stop-color="#808285"/><stop offset="0.16" stop-color="#85878a"/><stop offset="0.37" stop-color="#949699"/><stop offset="0.59" stop-color="#aeb0b1"/><stop offset="0.83" stop-color="#d0d2d3"/><stop offset="0.83" stop-color="#d1d3d4"/></linearGradient><linearGradient id="linear-gradient-7" x1="115.08" y1="108.58" x2="115.08" gradientUnits="userSpaceOnUse"><stop offset="0.23" stop-color="#939598"/><stop offset="0.35" stop-color="#9c9ea0"/><stop offset="0.55" stop-color="#b3b5b7"/><stop offset="0.75" stop-color="#d1d3d4"/></linearGradient></defs><g id="Layer_2" data-name="Layer 2"><g id="Layer_1-2" data-name="Layer 1"><path class="cls-1" d="M46.8,230.56c-.86-.21-1.65-.4-2.37-.51a.2.2,0,0,1-.12,0c.77.11,1.59.3,2.49.52a21.06,21.06,0,0,1,2.37.75v-.06A21,21,0,0,0,46.8,230.56Z"/><path class="cls-2" d="M146.88,160.12c.27.09.55.2.83.32A7.82,7.82,0,0,0,146.88,160.12Z"/><path class="cls-3" d="M175.94,364.23c-5.7,2-19.34,1.36-28.95-2.53s-20.59-17.54-20.38-23.78,7.5-9.61,8.88-13.42.41-2.43.2-16.67,2.85-18.28,2.08-24.94-14.12-34.36-14.12-34.36c-3.05-8.92-5.07-14.94-8.75-15.22,5.61-3.84,9.79-9.18,9.31-13.15a24.77,24.77,0,0,0-3.2-8.29v0l37.8-45.21C161.65,188.77,162,219,162,219a42.43,42.43,0,0,0,1.58,18c3,10.14,10,35,12.21,43.87s1.26,8.55,1.26,13.94S165.22,330,167.3,340.61c8.44,1.58,12.86,11.23,12.86,14.11C180.16,357.78,181.63,362.22,175.94,364.23Z"/><path class="cls-4" d="M111.94,245.52c-.37,4.95-.46,25.33,0,37.91s-2.31,26.28-3,35.7-1.32,23.53-1.32,23.53c.54,5.31,3.79,8.1,3.55,10.87s.17,4.66-4.5,7.43-16,4.68-29.23,4.26S63.16,357,62.53,352.34s12.32-12.88,13-13.29a2.15,2.15,0,0,0-.11.37l.13-.39h0c.17-.63.47-1.65.93-3.23,1.62-5.56-.3-26.89-1.56-40.29l0,0c1.43-1.54,2.79-3.16,4.14-4.85.69-.87,1.34-1.73,2-2.6s1.32-1.8,2-2.71c7.56-10.71,5.93-22.58,2.77-31.2l13.55-16.21c4.23.71,9.23-.83,13.64-3.38C111.78,236.9,112.22,241.9,111.94,245.52Z"/><path class="cls-5" d="M86.36,253.88c3.16,8.62,4.78,20.49-2.78,31.2a99.65,99.65,0,0,1-8.09,10.16c-10.66,11.34-24.4,17.82-50.36,14.07L53.27,286l7.43-7.4c7.4-7.43,0-13.08,0-13.08L43.51,248.32c-5.22-5.22-11.11,1.58-11.11,1.58L.08,279.21S-2,250.38,15.3,236.61s33.27-13.17,44-10.46c.11,0,.22.06.33.09l13.4-15.49a16.93,16.93,0,0,0,1.86,2.93c.18.19.35.43.57.69,3.61,4.7,11.9,18.14,21.82,22.54a10.39,10.39,0,0,0,2.6.76Z"/><path class="cls-5" d="M259.29,86.28c-13,10.37-25.27,12.58-35.14,11.88-2.29-10.3-9.22-15.11-14.74-16.6h0c-4.61-1.24-8.22-.13-7.38,2s1.82,5.09,2.92,8.19A94.84,94.84,0,0,0,209.41,103c.39.76.71,1.47,1,2.06,0,0,0,0,0,0l0,0-1.8,2.14c-3.25-2.77-11.08-15.2-17.45-17.06a2.06,2.06,0,0,0-.5-.13,4,4,0,0,0-.5-.09,2.17,2.17,0,0,0-.36,0,8.65,8.65,0,0,0-1.34,0,10.19,10.19,0,0,0-1.19.2l-.19,0c-6.58,1.55-14.92,9.25-15,15.93a101.94,101.94,0,0,0,.91,15v0c.7,4.81,1.82,9.37,3.64,12.34a24.11,24.11,0,0,0,4.16,5v0l1,.91-.54.63L170,153.42l-6.67,8v0l0,0L159,166.6l-37.82,45.25c-3.9-6.95-10-14.22-10.85-16.21-1.28-2.84-.89-6.63,3.29-6.48s22.74,5.52,26.65-3.72-.9-8.55-5.15-8.38-11.69.41-16.45-.43a45.9,45.9,0,0,0-16.22-.2L124,151.55,156.47,114l34.14-39.47c-.34-.67-.67-1.39-1-2.15s-.68-1.56-1-2.38-.52-1.41-.76-2.12-.41-1.28-.6-1.93a3.82,3.82,0,0,1-.16-.54c-.19-.69-.39-1.41-.54-2.14s-.3-1.43-.43-2.17-.2-1.3-.26-1.95-.13-1.34-.17-2-.07-1.32-.07-2c0-.37,0-.74,0-1.1s0-.52,0-.8c0-.52.07-1,.13-1.56.05-.28.07-.59.11-.87a29,29,0,0,1,2.6-8.7c.17-.33.33-.65.52-1a26.61,26.61,0,0,1,2-3.31c1-1.36,1.95-2.71,2.95-4,.32-.43.65-.86,1-1.27,1-1.28,2-2.49,3.08-3.68.69-.78,1.43-1.56,2.14-2.3a50.22,50.22,0,0,1,6.76-5.78c.52-.39,1.06-.74,1.6-1.1s.89-.54,1.34-.8a11.53,11.53,0,0,1,1.37-.78c.54-.31,1.08-.59,1.64-.85a14.33,14.33,0,0,1,1.6-.73c.31-.16.59-.26.89-.39s.39-.16.56-.22c.42-.17.81-.33,1.22-.46s1.06-.36,1.6-.54c.37-.1.74-.23,1.1-.32.61-.2,1.22-.35,1.84-.5a50.52,50.52,0,0,1,5.39-1c.81-.11,1.61-.19,2.43-.26,1.08-.11,2.19-.19,3.33-.21.91-.05,1.87-.07,2.82-.07a94.61,94.61,0,0,1,10.37.61c1,.13,2.08.26,3.14.41l.28,0L221.31,36.89l-2.4,2.4c-.11.11-.22.24-.35.35l-.36.37a5.48,5.48,0,0,1-.42.41l-1.42,1.43-.57.56-1.21,1.21-.67.68a13.28,13.28,0,0,0-2.25,2.88l0,.06a9.87,9.87,0,0,0-.57,1.26s0,.08,0,.12a7,7,0,0,0-.3,3.57s0,0,0,0a6.94,6.94,0,0,0,.24,1,.49.49,0,0,1,0,.11,8.07,8.07,0,0,0,.37.9,4.41,4.41,0,0,0,.28.52l.43.69a10.49,10.49,0,0,0,.78,1,4,4,0,0,1,.28.3c.15.17.3.3.43.43l.16.15a.37.37,0,0,1,.15.11h0l0,.05.09.08,2.55,2.56c.26.24.52.5.8.8l13.71,13.7c5.22,5.22,11.11-1.6,11.11-1.6l32.32-29.29S276.57,72.51,259.29,86.28Z"/><path class="cls-6" d="M151.91,113l-3-.65c-1-.24-2-.45-2.86-.67s-1.63-.41-2.38-.61l-.14,0c-.75-.2-1.45-.41-2.09-.61a1.29,1.29,0,0,0-.26-.08l-1-.35a13.47,13.47,0,0,1-1.56-.67,3.92,3.92,0,0,1-1-.67,6.65,6.65,0,0,1-.87-1.11s0,0,0,0a11.06,11.06,0,0,1-1.45-4.37v0c-.3.13-.6.23-.91.34s-.78.31-1.17.44c-.19.08-.39.15-.58.21a5.08,5.08,0,0,1-.59.18l-1.25.38a53.6,53.6,0,0,1-15.59,2.3A53,53,0,0,1,100,104.7h0s0,0,0,0h.05a.07.07,0,0,0,0,0v0s0,0,0,0a8.82,8.82,0,0,1,.11,4.74,0,0,0,0,1,0,0,4.09,4.09,0,0,1-.41.87c-.07.09-.13.2-.2.28a3,3,0,0,1-.3.33,3.3,3.3,0,0,1-.35.28,4.06,4.06,0,0,1-.69.41,6.57,6.57,0,0,1-.67.22c-2.11.54-5.79,1.27-9.89,2.29h0c-.31.09-.63.15-1,.24-5.21,1.32-11,3.12-15,5.59l-.82.51a2.1,2.1,0,0,0-.3.22,11.73,11.73,0,0,0-1.67,1.39,7.24,7.24,0,0,0-.76.82,5.82,5.82,0,0,0-.63.87c-2.2,3.57-7.12,12.6-11.77,22.06l0,0-.88,1.8-.87,1.79c-.3.61-.58,1.19-.87,1.8-.39.78-.75,1.58-1.1,2.36-1.8,3.81-3.42,7.45-4.63,10.57-.22.54-.41,1.06-.61,1.58s-.3.8-.43,1.19-.26.67-.35,1a6.74,6.74,0,0,0-.28.91c-.09.3-.17.59-.26.87a2.85,2.85,0,0,0-.11.39c0,.11-.06.21-.09.32-.49,2.08-1,4.09-1.29,6-.16.8-.29,1.56-.39,2.32s-.22,1.38-.29,2.05a1.86,1.86,0,0,0,0,.33c-.06.52-.11,1-.13,1.51a22.61,22.61,0,0,0-.11,2.41c0,.52,0,1,.07,1.54a12.65,12.65,0,0,0,.47,2.92,7.41,7.41,0,0,0,1.71,3.09c3.56,3.53,12,.52,16.07.74.84,0,1.75.78,2.68,1.95.13.15.24.3.37.47s.24.33.35.5a12.51,12.51,0,0,1,.73,1.11c.61.93,1.2,2,1.8,3.11.26.5.52,1,.8,1.52,0,.07.07.13.09.2.3.58.61,1.16.89,1.75s.58,1.17.86,1.73.46.91.67,1.37.46.9.7,1.36.37.76.56,1.1.5,1,.74,1.39A17.19,17.19,0,0,0,74.38,214c.17.2.34.43.56.69l1.37,1.85c.49.69,1.06,1.47,1.64,2.31l.54.74c.18.24.37.5.54.76.37.47.74,1,1.11,1.49a.23.23,0,0,1,.06.09c.41.52.83,1.08,1.26,1.62v0c.67.85,1.34,1.67,2,2.51.48.57,1,1.13,1.45,1.69s1,1.11,1.52,1.65c.91.95,1.86,1.88,2.86,2.77.28.28.58.52.89.78s.58.5.88.73.61.48.91.7.57.41.85.6c.49.35,1,.7,1.53,1a5,5,0,0,0,.55.3,18.66,18.66,0,0,0,1.84.93,8.29,8.29,0,0,0,1.12.41,5.77,5.77,0,0,0,.93.24,3.7,3.7,0,0,0,.54.11c4.23.72,9.25-.82,13.67-3.4a0,0,0,0,0,0,0,22.19,22.19,0,0,0,1.92-1.21s0,0,0,0a.5.5,0,0,1,.08-.07h0c5.6-3.83,9.78-9.18,9.31-13.14a25,25,0,0,0-3.19-8.27,0,0,0,0,1,0,0,1.09,1.09,0,0,0-.06-.11c-1.45-2.56-3.19-5.2-4.85-7.56-.57-.8-1.11-1.56-1.65-2.29-1.38-2-2.6-3.6-3.4-4.79a12,12,0,0,1-.65-1c-.11-.17-.17-.3-.24-.43a6.69,6.69,0,0,1-.6-3.55,3.09,3.09,0,0,1,.41-1.23c.54-1.07,1.64-1.76,3.48-1.69,4.08.17,21.68,5.21,26.29-3,.13-.24.26-.5.37-.76a17.91,17.91,0,0,0,1.32-4.28c.76-4.7-3-4.23-6.48-4.1-4.22.16-11.69.42-16.45-.43a45.26,45.26,0,0,0-10.33-.78c-.56,0-1.12.07-1.71.11l-.32,0c-1.17.11-2.47.26-3.81.46h0l0,0L124,151.49l4.77-5.5,0,0,27.69-32h0v0ZM75.22,171.82c-1-.24-1.9-.46-2.75-.59l-.13,0c.18,0,1.32-.34,4.94-4.28.24,1.84.48,3.78.69,5.76A23.74,23.74,0,0,0,75.22,171.82Z"/><path class="cls-7" d="M221.3,128.19c-1.81,4.37-11,16.14-12.63,20.3s.59,12.95-.7,19.55-1.16,9.59-5.53,12.26a13.88,13.88,0,0,1-2.73,1.25,21.07,21.07,0,0,1-13.13-.62,11.34,11.34,0,0,1-1.2-.41c-5.29-2.05-15.63-12-22.33-18.86l-.05,0,6.73-8L181,140.1l.54-.64c-.33-.3-.68-.61-1-.92v0a24.21,24.21,0,0,1-4.2-5c-1.83-3-3-7.61-3.67-12.46,0,0,0,0,0,0a102.74,102.74,0,0,1-.92-15.14,10.77,10.77,0,0,1,.75-3.58,7.33,7.33,0,0,1,.3-.72,18.6,18.6,0,0,1,1.66-2.84,21.28,21.28,0,0,1,1.62-2c.2-.22.39-.42.61-.64A22.3,22.3,0,0,1,187,89.85l.19,0a10.72,10.72,0,0,1,1.2-.2,7.7,7.7,0,0,1,1.35,0,2.3,2.3,0,0,1,.37,0,3,3,0,0,1,.51.09c.17,0,.35.08.5.13,2.4.74,5,3,7.52,5.57l.65.7c1.07,1.18,2.14,2.42,3.15,3.65l2.82,3.45c.5.63,1,1.24,1.46,1.77a17.67,17.67,0,0,0,1.62,1.77,3,3,0,0,0,.33.3h0a1.25,1.25,0,0,0,.17.16c2.89,2.2,3.5,1.7,1.69-2.32,0,0,0,0,0,0l.05,0,6.66-8a49.1,49.1,0,0,0,7.17,1c.09.38.17.77.24,1.16C228.34,119.23,223.11,123.82,221.3,128.19Z"/><path class="cls-5" d="M259.29,86.23C246.3,96.6,234,98.81,224.15,98.12h0a50.71,50.71,0,0,1-7.1-1l-6.65,8-1.82,2.19h0a3,3,0,0,1-.33-.3c-.47-.46-1-1.06-1.6-1.76l-1.45-1.75c-.84-1.06-1.8-2.23-2.79-3.42s-2.06-2.45-3.12-3.62c-.22-.23-.43-.47-.65-.69-2.84-3-5.8-5.41-8.44-5.74-3.88-.49-9.33,2.41-13.25,6.48-.22.21-.41.41-.61.63a22.13,22.13,0,0,0-1.6,2,19.26,19.26,0,0,0-1.65,2.81q-.17.36-.3.72a10.84,10.84,0,0,0-.74,3.55,102.12,102.12,0,0,0,.91,15,0,0,0,0,0,0,0v0c-1.51-2.21-3-3.79-4.37-4.31a110.74,110.74,0,0,0-12.06-2.9l34.14-39.47c-.67-1.34-1.36-2.86-2-4.53-3.38-8.7-5.44-21,2.4-32.15,12.21-17.25,25.51-29,58.46-24.23L221.31,36.84l-7.42,7.41c-7.41,7.4,0,13.07,0,13.07l17.19,17.2c5.22,5.21,11.1-1.61,11.1-1.61l32.33-29.29S276.57,72.46,259.29,86.23Z"/><path class="cls-8" d="M169.34,54.28a54.32,54.32,0,0,1-14.59,37.07c-.61.64-1.24,1.29-1.86,1.9s-1.37,1.3-2.08,1.93a55.16,55.16,0,0,1-8.53,6.1c-1.13.65-2.28,1.26-3.42,1.82l-1.78.82-1.28.55s0,0-.08,0a.28.28,0,0,0-.13,0c-.13,0-.24.11-.37.15v0c-.31.13-.61.23-.91.34s-.78.31-1.17.43a8,8,0,0,1-1.17.39l-1.26.39a54,54,0,0,1-30.87.09,0,0,0,0,0,0,0,0,0,0,0,0,0,0,.15.15,0,0,1-.09,0l-.45-.13A53.34,53.34,0,0,1,94,104.31q-2.43-1-4.74-2.29c-1.06-.59-2.1-1.19-3.11-1.82s-2-1.32-3-2S81.24,96.71,80.31,96s-1.77-1.58-2.64-2.38h0a55,55,0,0,1-5.41-6,54.34,54.34,0,0,1,4.78-72c.67-.67,1.36-1.3,2.06-1.93h0c1.47-1.3,3-2.51,4.57-3.66A56.08,56.08,0,0,1,94,4.27l2.45-1h0c.83-.3,1.65-.58,2.49-.84s1.71-.52,2.58-.74,1.71-.41,2.58-.61a56.06,56.06,0,0,1,11-1.1A53.2,53.2,0,0,1,126,1.1c.78.16,1.54.33,2.3.52s1.52.42,2.27.63,1.48.46,2.21.72,1.47.52,2.19.8,1.43.58,2.12.88,1.19.55,1.78.83A54.3,54.3,0,0,1,169.34,54.28Z"/></g></g></svg>