<svg xmlns="http://www.w3.org/2000/svg" viewBox="0 0 104.21 30.37"><defs><style>.cls-1{fill:#c11010;}.cls-2{fill:#fff;}</style></defs><g id="Layer_2" data-name="Layer 2"><g id="Layer_1-2" data-name="Layer 1"><rect class="cls-1" width="104.21" height="30.37"/><path class="cls-2" d="M25.09,17.78l-.65,6.11H9v-.47h.57a2.37,2.37,0,0,0,1.22-.27,1.16,1.16,0,0,0,.52-.62,5.41,5.41,0,0,0,.14-1.62V9.46a5.9,5.9,0,0,0-.14-1.67,1.34,1.34,0,0,0-.57-.59A2.42,2.42,0,0,0,9.55,7H9V6.48h9.28V7H17.5a2.42,2.42,0,0,0-1.22.27,1.25,1.25,0,0,0-.52.62,5.08,5.08,0,0,0-.14,1.62V20.55a5.87,5.87,0,0,0,.15,1.71,1,1,0,0,0,.6.54,6,6,0,0,0,1.56.12h1.45a5,5,0,0,0,2.31-.49,4.34,4.34,0,0,0,1.6-1.54,12.73,12.73,0,0,0,1.28-3.11Z"/><path class="cls-2" d="M36.19,6.23a8.64,8.64,0,0,1,9.36,8.89A9.24,9.24,0,0,1,43.61,21a8.6,8.6,0,0,1-7.25,3.34,8.8,8.8,0,0,1-7.27-3.18,9.25,9.25,0,0,1-2-6A8.67,8.67,0,0,1,29.7,8.67,8.39,8.39,0,0,1,36.19,6.23Zm.16.82a3.93,3.93,0,0,0-3.64,2.44,13,13,0,0,0-1,5.76q0,4.45,1.56,6.59a3.59,3.59,0,0,0,3.06,1.49,3.73,3.73,0,0,0,2.21-.64,5.33,5.33,0,0,0,1.76-2.63,14.56,14.56,0,0,0,.63-4.71,15.92,15.92,0,0,0-.64-5.17,5.08,5.08,0,0,0-1.64-2.42A3.89,3.89,0,0,0,36.35,7.05Z"/><path class="cls-2" d="M54.62,19.18H47.13V16.52h7.49Z"/><path class="cls-2" d="M73.4,6.08v6.14h-.48a7.77,7.77,0,0,0-2.58-3.83,6.1,6.1,0,0,0-3.76-1.31,4.86,4.86,0,0,0-3.25,1.1,5.9,5.9,0,0,0-1.84,3.06,15.18,15.18,0,0,0-.54,4,14.93,14.93,0,0,0,.59,4.4,5,5,0,0,0,1.91,2.77,5.48,5.48,0,0,0,3.13.89,6.44,6.44,0,0,0,1.29-.14,9.24,9.24,0,0,0,1.35-.39V19.18a3.7,3.7,0,0,0-.14-1.33,1.35,1.35,0,0,0-.58-.55,2.23,2.23,0,0,0-1.07-.24H67v-.48h8.46v.48a3.7,3.7,0,0,0-1.34.26,1.42,1.42,0,0,0-.59.66,4,4,0,0,0-.11,1.2V22.8a16.63,16.63,0,0,1-3.48,1.12,17.64,17.64,0,0,1-3.74.38,10.93,10.93,0,0,1-4.12-.67,10.43,10.43,0,0,1-2.89-1.77,8.49,8.49,0,0,1-2-2.48,8.61,8.61,0,0,1-.9-4,8.94,8.94,0,0,1,2.76-6.64,9.51,9.51,0,0,1,7-2.71,11.83,11.83,0,0,1,2.33.2,11.14,11.14,0,0,1,1.83.59,7.87,7.87,0,0,0,1.5.48,1,1,0,0,0,.67-.27,2.31,2.31,0,0,0,.56-1Z"/><path class="cls-2" d="M85.87,6.23a8.64,8.64,0,0,1,9.36,8.89A9.24,9.24,0,0,1,93.29,21,8.6,8.6,0,0,1,86,24.29a8.8,8.8,0,0,1-7.27-3.18,9.2,9.2,0,0,1-2-6,8.67,8.67,0,0,1,2.64-6.46A8.39,8.39,0,0,1,85.87,6.23Zm.15.82a3.93,3.93,0,0,0-3.63,2.44,13,13,0,0,0-1,5.76c0,3,.53,5.17,1.57,6.59A3.59,3.59,0,0,0,86,23.33a3.73,3.73,0,0,0,2.21-.64A5.33,5.33,0,0,0,90,20.06a14.56,14.56,0,0,0,.63-4.71A15.6,15.6,0,0,0,90,10.18a5,5,0,0,0-1.63-2.42A3.9,3.9,0,0,0,86,7.05Z"/></g></g></svg>