<svg width="563" height="95" viewBox="0 0 563 95" fill="none" xmlns="http://www.w3.org/2000/svg">
<path d="M1.33008 3.02959C4.12287 2.57363 7.55401 2.57363 10.2404 3.02959V77.8334C7.58061 78.2893 4.12287 78.2893 1.33008 77.8334V3.02959Z" stroke="white" stroke-width="3"/>
<path d="M53.4621 15.5014V77.8334C50.5629 78.2893 47.4509 78.2893 44.5518 77.8334V3.02959C47.4509 2.57363 51.68 2.57363 54.5792 3.02959L101.019 66.5954V3.02959C104.131 2.57363 107.03 2.57363 109.93 3.02959V77.8334C106.578 78.2893 102.695 78.2893 99.3436 77.8334L53.4621 15.5014Z" stroke="white" stroke-width="3"/>
<path d="M170.626 79.0414C153.364 78.2636 142.113 72.8726 142.113 58.2551V22.2345C142.113 6.62468 155.146 1.34094 174.749 1.34094C194.245 1.34094 207.278 6.62468 207.278 22.2345V58.2819C207.278 72.5507 196.48 78.049 179.989 78.9341V79.6046L183.766 83.0914L192.118 93.3102C189.112 93.7661 185.202 93.7661 182.196 93.3102L170.626 79.0414ZM198.341 23.5756C198.341 10.7819 187.543 9.1995 174.722 9.1995C161.796 9.1995 150.997 10.7819 150.997 23.5756V56.9409C150.997 69.4127 161.796 71.1024 174.722 71.1024C187.516 71.1024 198.341 69.4127 198.341 56.9409V23.5756Z" stroke="white" stroke-width="3"/>
<path d="M300.372 28.9683C300.372 39.9649 293.802 45.3559 282.764 47.1529C290.451 56.5939 296.462 67.9392 301.249 77.8093C299.813 78.2653 293.243 78.2653 291.78 77.8093C286.993 68.1538 280.875 57.2644 273.295 47.9307H248.346V77.8093C245.553 78.2653 242.228 78.2653 239.436 77.8093V3.03235H272.284C289.546 3.03235 300.345 8.2088 300.345 22.9067V28.9683H300.372ZM291.461 24.355C291.461 12.4465 282.338 10.8909 271.513 10.8909H248.346V40.3135H271.513C282.418 40.3135 291.461 38.7311 291.461 27.7345V24.355V24.355Z" stroke="white" stroke-width="3"/>
<path d="M394.608 58.2819C394.608 73.999 381.575 79.1755 362.079 79.1755C342.476 79.1755 329.443 73.999 329.443 58.2819V22.2345C329.443 6.62468 342.476 1.34094 362.079 1.34094C381.575 1.34094 394.608 6.62468 394.608 22.2345V58.2819ZM385.698 23.5756C385.698 10.7819 374.899 9.1995 362.079 9.1995C349.152 9.1995 338.354 10.7819 338.354 23.5756V56.9409C338.354 69.4127 349.152 71.1024 362.079 71.1024C374.873 71.1024 385.698 69.4127 385.698 56.9409V23.5756Z" stroke="white" stroke-width="3"/>
<path d="M443.602 46.4796L413.759 3.02959C415.993 2.57363 420.781 2.57363 423.015 3.02959L448.283 40.2035L473.79 3.02959C476.344 2.57363 480.147 2.57363 482.701 3.02959L452.512 46.4796V77.8066C449.852 78.2625 446.395 78.2625 443.602 77.8066V46.4796Z" stroke="white" stroke-width="3"/>
<path d="M542.839 56.1358H506.426L497.409 77.8071C494.962 78.2631 490.946 78.2631 488.393 77.8071L520.363 3.00334C523.156 2.54739 526.481 2.54739 529.274 3.00334L561.112 77.8071C558.665 78.2631 554.435 78.2631 551.855 77.8071L542.839 56.1358ZM524.592 12.6857L509.565 48.7332H539.753L524.592 12.6857Z" stroke="white" stroke-width="3"/>
</svg>
