<svg width="220" height="38" viewBox="0 0 220 38" fill="none" xmlns="http://www.w3.org/2000/svg">
<path d="M1 2.14958C2.08302 1.97423 3.4136 1.97423 4.45536 2.14958V30.9168C3.42391 31.0921 2.08302 31.0921 1 30.9168V2.14958Z" stroke="white" stroke-width="2"/>
<path d="M21.2161 6.94583V30.9168C20.0918 31.0921 18.885 31.0921 17.7607 30.9168V2.14958C18.885 1.97423 20.525 1.97423 21.6493 2.14958L39.6585 26.595V2.14958C40.8653 1.97423 41.9896 1.97423 43.1138 2.14958V30.9168C41.8142 31.0921 40.3083 31.0921 39.0087 30.9168L21.2161 6.94583Z" stroke="white" stroke-width="2"/>
<path d="M66.6519 31.3812C59.9578 31.082 55.5947 29.0088 55.5947 23.3874V9.53501C55.5947 3.53196 60.6488 1.5 68.2506 1.5C75.8112 1.5 80.8653 3.53196 80.8653 9.53501V23.3977C80.8653 28.8851 76.6776 30.9995 70.2826 31.3399V31.5978L71.7473 32.9387L74.986 36.8685C73.8205 37.0438 72.3042 37.0438 71.1387 36.8685L66.6519 31.3812ZM77.3996 10.0507C77.3996 5.13071 73.2119 4.52215 68.2403 4.52215C63.2275 4.52215 59.0398 5.13071 59.0398 10.0507V22.882C59.0398 27.6783 63.2275 28.3281 68.2403 28.3281C73.2016 28.3281 77.3996 27.6783 77.3996 22.882V10.0507Z" stroke="white" stroke-width="2"/>
<path d="M116.967 12.1236C116.967 16.3525 114.419 18.4257 110.138 19.1168C113.119 22.7475 115.45 27.1106 117.307 30.9063C116.75 31.0816 114.202 31.0816 113.635 30.9063C111.778 27.1931 109.406 23.0054 106.466 19.4159H96.7913V30.9063C95.7083 31.0816 94.419 31.0816 93.3359 30.9063V2.14941H106.074C112.769 2.14941 116.956 4.14012 116.956 9.79247V12.1236H116.967ZM113.511 10.3495C113.511 5.76981 109.973 5.17157 105.775 5.17157H96.7913V16.4866H105.775C110.004 16.4866 113.511 15.878 113.511 11.6491V10.3495V10.3495Z" stroke="white" stroke-width="2"/>
<path d="M153.511 23.3977C153.511 29.442 148.457 31.4327 140.896 31.4327C133.294 31.4327 128.24 29.442 128.24 23.3977V9.53501C128.24 3.53196 133.294 1.5 140.896 1.5C148.457 1.5 153.511 3.53196 153.511 9.53501V23.3977ZM150.055 10.0507C150.055 5.13071 145.868 4.52215 140.896 4.52215C135.883 4.52215 131.696 5.13071 131.696 10.0507V22.882C131.696 27.6783 135.883 28.3281 140.896 28.3281C145.857 28.3281 150.055 27.6783 150.055 22.882V10.0507Z" stroke="white" stroke-width="2"/>
<path d="M172.509 18.8591L160.937 2.14958C161.803 1.97423 163.66 1.97423 164.526 2.14958L174.325 16.4455L184.216 2.14958C185.207 1.97423 186.682 1.97423 187.672 2.14958L175.965 18.8591V30.9065C174.933 31.0818 173.592 31.0818 172.509 30.9065V18.8591Z" stroke="white" stroke-width="2"/>
<path d="M210.994 22.5724H196.873L193.377 30.9065C192.428 31.0819 190.87 31.0819 189.88 30.9065L202.278 2.13932C203.361 1.96398 204.65 1.96398 205.733 2.13932L218.08 30.9065C217.131 31.0819 215.491 31.0819 214.49 30.9065L210.994 22.5724ZM203.918 5.86286L198.09 19.7256H209.797L203.918 5.86286Z" stroke="white" stroke-width="2"/>
</svg>
