<svg width="330" height="255" viewBox="0 0 330 255" fill="none" xmlns="http://www.w3.org/2000/svg">
<path d="M1 200.979C2.63216 200.715 4.63739 200.715 6.20738 200.979V244.332C4.65294 244.597 2.63216 244.597 1 244.332V200.979Z" stroke="white" stroke-width="2"/>
<path d="M31.4662 208.207V244.332C29.7718 244.597 27.9531 244.597 26.2588 244.332V200.979C27.9531 200.715 30.4247 200.715 32.119 200.979L59.2596 237.819V200.979C61.0783 200.715 62.7726 200.715 64.467 200.979V244.332C62.5084 244.597 60.2389 244.597 58.2803 244.332L31.4662 208.207Z" stroke="white" stroke-width="2"/>
<path d="M99.94 245.032C89.8517 244.581 83.2764 241.457 83.2764 232.985V212.109C83.2764 203.062 90.8931 200 102.349 200C113.743 200 121.36 203.062 121.36 212.109V233.001C121.36 241.27 115.049 244.457 105.412 244.97V245.359L107.619 247.379L112.5 253.302C110.743 253.566 108.458 253.566 106.702 253.302L99.94 245.032ZM116.137 212.886C116.137 205.472 109.826 204.555 102.334 204.555C94.7792 204.555 88.4682 205.472 88.4682 212.886V232.224C88.4682 239.452 94.7792 240.431 102.334 240.431C109.811 240.431 116.137 239.452 116.137 232.224V212.886Z" stroke="white" stroke-width="2"/>
<path d="M175.767 216.01C175.767 222.383 171.927 225.508 165.476 226.549C169.968 232.021 173.482 238.596 176.28 244.317C175.44 244.581 171.601 244.581 170.746 244.317C167.948 238.721 164.373 232.41 159.942 227H145.362V244.317C143.73 244.581 141.786 244.581 140.154 244.317V200.979H159.352C169.44 200.979 175.751 203.979 175.751 212.497V216.01H175.767ZM170.559 213.337C170.559 206.435 165.227 205.533 158.901 205.533H145.362V222.585H158.901C165.274 222.585 170.559 221.668 170.559 215.295V213.337V213.337Z" stroke="white" stroke-width="2"/>
<path d="M230.841 233.001C230.841 242.11 223.224 245.11 211.83 245.11C200.374 245.11 192.757 242.11 192.757 233.001V212.109C192.757 203.062 200.374 200 211.83 200C223.224 200 230.841 203.062 230.841 212.109V233.001ZM225.633 212.886C225.633 205.472 219.322 204.555 211.83 204.555C204.275 204.555 197.964 205.472 197.964 212.886V232.224C197.964 239.452 204.275 240.431 211.83 240.431C219.307 240.431 225.633 239.452 225.633 232.224V212.886Z" stroke="white" stroke-width="2"/>
<path d="M259.472 226.161L242.031 200.979C243.337 200.715 246.135 200.715 247.441 200.979L262.208 222.524L277.115 200.979C278.607 200.715 280.83 200.715 282.322 200.979L264.679 226.161V244.317C263.125 244.581 261.104 244.581 259.472 244.317V226.161Z" stroke="white" stroke-width="2"/>
<path d="M317.47 231.757H296.19L290.92 244.317C289.49 244.581 287.143 244.581 285.65 244.317L304.335 200.963C305.967 200.699 307.91 200.699 309.542 200.963L328.149 244.317C326.719 244.581 324.247 244.581 322.739 244.317L317.47 231.757ZM306.806 206.575L298.024 227.467H315.667L306.806 206.575Z" stroke="white" stroke-width="2"/>
<path d="M164.5 0L68 13.5408L164.5 166L261 13.5408L164.5 0ZM163.008 157.85L73.596 16.6752L163.008 29.213V157.85ZM82.9227 14.5438L164.5 3.13444L247.072 14.6692L164.5 26.3293L82.9227 14.5438ZM165.992 29.0876L255.404 16.5499L165.992 157.85V29.0876Z" fill="#F5F5F5"/>
</svg>
